<?xml version="1.0" encoding="UTF-8"?>
<svg width="1200pt" height="1200pt" version="1.1" viewBox="0 0 1200 1200" xmlns="http://www.w3.org/2000/svg">
 <path fill="#808080" d="m728.95 450.84c0-71.156-57.797-128.95-128.95-128.95-71.016 0-128.95 57.797-128.95 128.95 0 44.578 22.547 85.359 60.141 109.12 8.0625 5.1562 10.547 15.938 5.3906 24-3.3281 5.25-8.9531 8.0625-14.672 8.0625-3.1875 0-6.375-0.84375-9.3281-2.6719-47.859-30.234-76.406-81.938-76.406-138.47 0-90.375 73.453-163.82 163.74-163.82 90.375 0 163.82 73.453 163.82 163.82 0 49.359-21.938 95.531-60.234 126.84-7.4531 6.1406-18.375 5.0156-24.469-2.4375-6.1406-7.4531-5.0156-18.375 2.4375-24.469 30.188-24.656 47.484-61.172 47.484-99.984zm-426.28 66.141 49.969 9.9375 18.75 45.328-28.406 42.375c-4.6406 6.8438-3.6562 16.172 2.2031 22.031l69.328 69.188c3.3281 3.3281 7.8281 5.1562 12.375 5.1562 3.3281 0 6.75-0.98438 9.6562-2.9531l42.375-28.406 20.344 8.4375c8.9531 3.6562 19.125-0.46875 22.781-9.4219s-0.46875-19.125-9.4219-22.781l-28.875-12c-5.3906-2.2031-11.531-1.5938-16.406 1.5938l-38.203 25.594-48.984-48.984 25.594-38.203c3.1875-4.875 3.7969-11.016 1.5938-16.406l-25.969-62.578c-2.2031-5.3906-6.9844-9.3281-12.75-10.406l-45.047-8.9531v-69.328l45.047-8.9531c5.7656-1.125 10.547-5.0156 12.75-10.406l25.969-62.578c2.2031-5.3906 1.5938-11.531-1.5938-16.406l-25.594-38.203 48.984-48.984 38.203 25.594c4.875 3.3281 11.016 3.7969 16.406 1.5938l62.578-25.969c5.3906-2.2031 9.3281-6.9844 10.406-12.75l8.8125-45.047h69.328l8.9531 45.047c1.125 5.7656 5.0156 10.547 10.406 12.75l62.578 25.969c5.3906 2.2031 11.531 1.5938 16.406-1.5938l38.203-25.594 48.984 48.984-25.594 38.203c-3.1875 4.875-3.7969 11.016-1.5938 16.406l25.969 62.578c2.2031 5.3906 6.9844 9.3281 12.75 10.406l45.047 8.9531v69.328l-45.047 8.9531c-5.7656 1.125-10.547 5.0156-12.75 10.406l-25.969 62.578c-2.2031 5.3906-1.5938 11.531 1.5938 16.406l17.766 26.578c5.3906 7.9688 16.172 10.172 24.141 4.7812s10.172-16.172 4.7812-24.141l-12.609-18.844 18.75-45.328 49.969-9.9375c8.2031-1.5938 14.062-8.8125 14.062-17.016v-97.969c0-8.3438-5.8594-15.422-14.062-17.016l-49.969-9.9375-18.75-45.422 28.406-42.375c4.6406-6.8438 3.6562-16.172-2.2031-22.031l-69.328-69.188c-5.8594-5.8594-15.047-6.75-22.031-2.0625l-42.375 28.406-45.422-18.844-9.9375-49.969c-1.5938-8.2031-8.8125-14.062-17.016-14.062h-97.969c-8.3438 0-15.422 5.8594-17.156 14.062l-9.7969 49.969-45.422 18.844-42.375-28.406c-6.8438-4.6406-16.172-3.7969-22.031 2.0625l-69.328 69.188c-5.8594 5.8594-6.75 15.047-2.2031 22.031l28.406 42.375-18.75 45.422-49.969 9.9375c-8.2031 1.5938-14.062 8.8125-14.062 17.016v97.969c0.28125 8.2031 6.1406 15.422 14.344 17.016zm-253.69-66.141c0-29.25 23.859-53.156 53.156-53.156 23.156 0 42.984 14.953 50.203 35.766h110.06c9.6562 0 17.391 7.8281 17.391 17.391s-7.8281 17.391-17.391 17.391h-110.06c-7.2188 20.672-26.953 35.625-50.203 35.625-29.297 0.14062-53.156-23.719-53.156-53.016zm34.875 0c0 10.031 8.2031 18.234 18.375 18.234 10.031 0 18.234-8.2031 18.234-18.234 0-10.172-8.2031-18.375-18.234-18.375-10.172 0.14062-18.375 8.3438-18.375 18.375zm64.312-344.06c23.156 0 42.984 14.953 50.203 35.625h110.58c4.6406 0 9.0469 1.8281 12.375 5.1562l52.406 52.406c6.8438 6.8438 6.8438 17.859 0 24.609-3.4219 3.4219-7.8281 5.1562-12.375 5.1562-4.4062 0-8.9531-1.7344-12.375-5.1562l-47.25-47.25h-103.36c-7.2188 20.812-26.953 35.766-50.203 35.766-29.25 0-53.156-23.859-53.156-53.156 0-29.391 23.859-53.156 53.156-53.156zm0 34.781c-10.172 0-18.375 8.2031-18.375 18.234 0 10.172 8.2031 18.375 18.375 18.375 10.031 0 18.234-8.2031 18.234-18.375 0.14062-10.031-8.0625-18.234-18.234-18.234zm691.22 737.63c-7.7344 12.984-15.047 25.453-16.875 51.562 12 6.375 20.203 18.984 20.203 33.422v91.219c0 20.812-17.016 37.828-37.969 37.828h-239.16c-20.953 0-37.969-17.016-37.969-37.828v-91.219c0-9.0469 3.1875-17.391 8.4375-23.859-45.328-45.562-68.062-102.61-61.734-156.74 5.5312-46.641 32.203-86.203 73.734-110.06v-222.66c0-28.641 23.25-51.938 51.938-51.938 28.641 0 51.938 23.25 51.938 51.938v138.74c5.3906-1.8281 11.016-2.9531 17.016-2.9531 17.016 0 32.062 8.2031 41.625 20.953 7.9688-4.875 17.391-7.8281 27.328-7.8281 20.578 0 38.344 12 46.781 29.391 6.75-3.3281 14.344-5.0156 22.172-5.0156 28.641 0 51.938 23.25 51.938 51.938v136.4c-0.046875 34.125-10.359 51.375-19.406 66.703zm-31.594 85.078c0-1.5938-1.4531-3.0469-3.0469-3.0469h-239.16c-1.5938 0-3.0469 1.4531-3.0469 3.0469v91.219c0 1.5938 1.4531 3.0469 3.0469 3.0469h239.16c1.7344 0 3.0469-1.3594 3.0469-3.0469zm16.172-288.24c0-9.4219-7.7344-17.016-17.156-17.016-8.5781 0-15.938 6.6094-16.875 15.047v15.422c0 9.6562-7.8281 17.391-17.391 17.391s-17.391-7.8281-17.391-17.391v-16.266l-0.14062-21.328c0-9.5625-7.5938-17.156-17.016-17.156s-17.156 7.5938-17.156 17.016v25.359c0 9.6562-7.8281 17.391-17.391 17.391-9.6562 0-17.391-7.8281-17.391-17.391v-38.484c0-9.4219-7.5938-17.156-17.016-17.156s-17.016 7.7344-17.016 17.156v25.359c0 9.6562-7.8281 17.391-17.391 17.391s-17.391-7.8281-17.391-17.391v-213.14c0-9.3281-7.8281-17.156-17.156-17.156-9.4219 0-17.016 7.7344-17.016 17.156v317.39c0 9.6562-7.8281 17.391-17.391 17.391-9.6562 0-17.391-7.8281-17.391-17.391v-52.547c-22.031 18.234-35.625 43.125-39.188 72-5.625 47.531 17.766 98.953 62.953 138.47h215.86c2.5781-32.953 12.609-49.828 21.562-64.875 8.0625-13.594 14.438-24.375 14.438-48.844zm-625.6 48.516h103.36l47.25-47.25c6.8438-6.8438 17.859-6.8438 24.609 0 6.8438 6.8438 6.8438 17.859 0 24.609l-52.406 52.406c-3.3281 3.3281-7.7344 5.1562-12.375 5.1562l-110.44-0.046875c-7.2188 20.812-26.953 35.766-50.203 35.766-29.25 0-53.156-23.859-53.156-53.156 0-29.25 23.859-53.156 53.156-53.156 23.25 0 42.984 14.859 50.203 35.672zm-31.828 17.391c0-10.031-8.2031-18.234-18.234-18.234-10.172 0-18.375 8.2031-18.375 18.234 0 10.172 8.2031 18.375 18.375 18.375 10.031-0.046875 18.234-8.25 18.234-18.375zm881.11-273.56h-110.06c-9.6562 0-17.391-7.8281-17.391-17.391s7.8281-17.391 17.391-17.391h110.06c7.2188-20.812 26.953-35.766 50.203-35.766 29.25 0 53.156 23.859 53.156 53.156 0 29.25-23.859 53.156-53.156 53.156-23.109-0.14062-42.984-15.094-50.203-35.766zm31.875-17.531c0 10.031 8.2031 18.234 18.375 18.234 10.031 0 18.234-8.2031 18.234-18.234 0-10.172-8.2031-18.375-18.234-18.375-10.078 0.14062-18.375 8.3438-18.375 18.375zm25.453-291.05c0 29.25-23.859 53.156-53.156 53.156-23.25 0-42.984-14.953-50.203-35.766h-103.36l-47.25 47.25c-3.4219 3.4219-7.8281 5.1562-12.375 5.1562-4.4062 0-8.9531-1.7344-12.375-5.1562-6.8438-6.8438-6.8438-17.859 0-24.609l52.406-52.406c3.3281-3.3281 7.7344-5.1562 12.375-5.1562h110.58c7.2188-20.672 26.953-35.625 50.203-35.625 29.297 0.14062 53.156 23.906 53.156 53.156zm-34.922 0c0-10.031-8.2031-18.234-18.234-18.234-10.172 0-18.375 8.2031-18.375 18.234 0 10.172 8.2031 18.375 18.375 18.375 10.031 0 18.234-8.2031 18.234-18.375z"/>
</svg>
